<mxfile host="app.diagrams.net" modified="2021-01-01T08:19:34.751Z" agent="5.0 (Windows)" etag="XDUoR9fiJ0UUbRfutLEa" version="14.1.6" type="github">
  <diagram id="R2lEEEUBdFMjLlhIrx00" name="Page-1">
    <mxGraphModel dx="6239" dy="2420" grid="1" gridSize="10" guides="1" tooltips="1" connect="1" arrows="1" fold="1" page="1" pageScale="1" pageWidth="850" pageHeight="1100" math="0" shadow="0" extFonts="Permanent Marker^https://fonts.googleapis.com/css?family=Permanent+Marker">
      <root>
        <mxCell id="0" />
        <mxCell id="1" parent="0" />
        <mxCell id="4OlCsBWtwcq7WQwYE5SA-1" value="" style="rounded=0;whiteSpace=wrap;html=1;" vertex="1" parent="1">
          <mxGeometry x="20" y="140" width="120" height="60" as="geometry" />
        </mxCell>
        <mxCell id="4OlCsBWtwcq7WQwYE5SA-2" value="" style="rhombus;whiteSpace=wrap;html=1;" vertex="1" parent="1">
          <mxGeometry x="340" y="145" width="55" height="50" as="geometry" />
        </mxCell>
        <mxCell id="4OlCsBWtwcq7WQwYE5SA-3" value="" style="rounded=0;whiteSpace=wrap;html=1;" vertex="1" parent="1">
          <mxGeometry x="600" y="140" width="120" height="60" as="geometry" />
        </mxCell>
        <mxCell id="4OlCsBWtwcq7WQwYE5SA-5" value="" style="rhombus;whiteSpace=wrap;html=1;" vertex="1" parent="1">
          <mxGeometry x="632.5" y="380" width="55" height="50" as="geometry" />
        </mxCell>
        <mxCell id="4OlCsBWtwcq7WQwYE5SA-6" value="" style="rounded=0;whiteSpace=wrap;html=1;" vertex="1" parent="1">
          <mxGeometry x="600" y="590" width="120" height="60" as="geometry" />
        </mxCell>
        <mxCell id="4OlCsBWtwcq7WQwYE5SA-7" value="" style="rhombus;whiteSpace=wrap;html=1;" vertex="1" parent="1">
          <mxGeometry x="350" y="595" width="55" height="50" as="geometry" />
        </mxCell>
        <mxCell id="4OlCsBWtwcq7WQwYE5SA-8" value="" style="rounded=0;whiteSpace=wrap;html=1;" vertex="1" parent="1">
          <mxGeometry x="40" y="590" width="120" height="60" as="geometry" />
        </mxCell>
        <mxCell id="4OlCsBWtwcq7WQwYE5SA-9" value="" style="rounded=0;whiteSpace=wrap;html=1;" vertex="1" parent="1">
          <mxGeometry x="-80" y="410" width="120" height="60" as="geometry" />
        </mxCell>
        <mxCell id="4OlCsBWtwcq7WQwYE5SA-10" value="" style="rounded=0;whiteSpace=wrap;html=1;" vertex="1" parent="1">
          <mxGeometry x="-200" y="590" width="120" height="60" as="geometry" />
        </mxCell>
        <mxCell id="4OlCsBWtwcq7WQwYE5SA-11" value="" style="rounded=0;whiteSpace=wrap;html=1;" vertex="1" parent="1">
          <mxGeometry x="-320" y="770" width="120" height="60" as="geometry" />
        </mxCell>
        <mxCell id="4OlCsBWtwcq7WQwYE5SA-12" value="" style="rounded=0;whiteSpace=wrap;html=1;" vertex="1" parent="1">
          <mxGeometry x="-90" y="770" width="120" height="60" as="geometry" />
        </mxCell>
        <mxCell id="4OlCsBWtwcq7WQwYE5SA-21" value="&lt;div&gt;&lt;br&gt;&lt;/div&gt;" style="endArrow=none;html=1;entryX=0;entryY=0.5;entryDx=0;entryDy=0;exitX=1;exitY=0.5;exitDx=0;exitDy=0;" edge="1" parent="1" source="4OlCsBWtwcq7WQwYE5SA-1" target="4OlCsBWtwcq7WQwYE5SA-2">
          <mxGeometry width="50" height="50" relative="1" as="geometry">
            <mxPoint x="200" y="195" as="sourcePoint" />
            <mxPoint x="250" y="145" as="targetPoint" />
          </mxGeometry>
        </mxCell>
        <mxCell id="4OlCsBWtwcq7WQwYE5SA-22" value="" style="endArrow=none;html=1;entryX=0;entryY=0.5;entryDx=0;entryDy=0;exitX=1;exitY=0.5;exitDx=0;exitDy=0;" edge="1" parent="1" source="4OlCsBWtwcq7WQwYE5SA-2" target="4OlCsBWtwcq7WQwYE5SA-3">
          <mxGeometry width="50" height="50" relative="1" as="geometry">
            <mxPoint x="470" y="195" as="sourcePoint" />
            <mxPoint x="520" y="145" as="targetPoint" />
          </mxGeometry>
        </mxCell>
        <mxCell id="4OlCsBWtwcq7WQwYE5SA-23" value="" style="endArrow=none;html=1;entryX=0.5;entryY=1;entryDx=0;entryDy=0;exitX=0.5;exitY=0;exitDx=0;exitDy=0;" edge="1" parent="1" source="4OlCsBWtwcq7WQwYE5SA-5" target="4OlCsBWtwcq7WQwYE5SA-3">
          <mxGeometry width="50" height="50" relative="1" as="geometry">
            <mxPoint x="635" y="320" as="sourcePoint" />
            <mxPoint x="685" y="270" as="targetPoint" />
          </mxGeometry>
        </mxCell>
        <mxCell id="4OlCsBWtwcq7WQwYE5SA-24" value="" style="endArrow=none;html=1;entryX=0.5;entryY=1;entryDx=0;entryDy=0;exitX=0.5;exitY=0;exitDx=0;exitDy=0;" edge="1" parent="1" source="4OlCsBWtwcq7WQwYE5SA-6" target="4OlCsBWtwcq7WQwYE5SA-5">
          <mxGeometry width="50" height="50" relative="1" as="geometry">
            <mxPoint x="635" y="530" as="sourcePoint" />
            <mxPoint x="685" y="480" as="targetPoint" />
          </mxGeometry>
        </mxCell>
        <mxCell id="4OlCsBWtwcq7WQwYE5SA-25" value="" style="endArrow=none;html=1;entryX=0;entryY=0.5;entryDx=0;entryDy=0;exitX=1;exitY=0.5;exitDx=0;exitDy=0;" edge="1" parent="1" source="4OlCsBWtwcq7WQwYE5SA-7" target="4OlCsBWtwcq7WQwYE5SA-6">
          <mxGeometry width="50" height="50" relative="1" as="geometry">
            <mxPoint x="450" y="645" as="sourcePoint" />
            <mxPoint x="500" y="595" as="targetPoint" />
          </mxGeometry>
        </mxCell>
        <mxCell id="4OlCsBWtwcq7WQwYE5SA-26" value="" style="endArrow=none;html=1;entryX=0;entryY=0.5;entryDx=0;entryDy=0;exitX=1;exitY=0.5;exitDx=0;exitDy=0;" edge="1" parent="1" source="4OlCsBWtwcq7WQwYE5SA-8" target="4OlCsBWtwcq7WQwYE5SA-7">
          <mxGeometry width="50" height="50" relative="1" as="geometry">
            <mxPoint x="240" y="645" as="sourcePoint" />
            <mxPoint x="290" y="595" as="targetPoint" />
          </mxGeometry>
        </mxCell>
        <mxCell id="4OlCsBWtwcq7WQwYE5SA-27" value="" style="shape=flexArrow;endArrow=classic;html=1;endWidth=28;endSize=10.3;width=22;fillColor=#000000;" edge="1" parent="1">
          <mxGeometry width="50" height="50" relative="1" as="geometry">
            <mxPoint x="-20" y="530" as="sourcePoint" />
            <mxPoint x="-20.5" y="470" as="targetPoint" />
          </mxGeometry>
        </mxCell>
        <mxCell id="4OlCsBWtwcq7WQwYE5SA-29" value="" style="shape=flexArrow;endArrow=classic;html=1;endWidth=28;endSize=10.3;width=22;fillColor=#000000;" edge="1" parent="1">
          <mxGeometry width="50" height="50" relative="1" as="geometry">
            <mxPoint x="-140" y="710" as="sourcePoint" />
            <mxPoint x="-140.5" y="650" as="targetPoint" />
            <Array as="points">
              <mxPoint x="-140" y="700" />
            </Array>
          </mxGeometry>
        </mxCell>
        <mxCell id="4OlCsBWtwcq7WQwYE5SA-30" value="" style="endArrow=none;html=1;fillColor=#000000;" edge="1" parent="1">
          <mxGeometry width="50" height="50" relative="1" as="geometry">
            <mxPoint x="-120" y="530" as="sourcePoint" />
            <mxPoint x="80" y="530" as="targetPoint" />
          </mxGeometry>
        </mxCell>
        <mxCell id="4OlCsBWtwcq7WQwYE5SA-31" value="" style="endArrow=none;html=1;fillColor=#000000;" edge="1" parent="1">
          <mxGeometry width="50" height="50" relative="1" as="geometry">
            <mxPoint x="-230" y="710" as="sourcePoint" />
            <mxPoint x="-30" y="710" as="targetPoint" />
          </mxGeometry>
        </mxCell>
        <mxCell id="4OlCsBWtwcq7WQwYE5SA-32" value="" style="endArrow=none;html=1;fillColor=#000000;" edge="1" parent="1">
          <mxGeometry width="50" height="50" relative="1" as="geometry">
            <mxPoint x="-120" y="591" as="sourcePoint" />
            <mxPoint x="-120" y="530" as="targetPoint" />
          </mxGeometry>
        </mxCell>
        <mxCell id="4OlCsBWtwcq7WQwYE5SA-33" value="" style="endArrow=none;html=1;fillColor=#000000;" edge="1" parent="1">
          <mxGeometry width="50" height="50" relative="1" as="geometry">
            <mxPoint x="80" y="590" as="sourcePoint" />
            <mxPoint x="80" y="530" as="targetPoint" />
          </mxGeometry>
        </mxCell>
        <mxCell id="4OlCsBWtwcq7WQwYE5SA-34" value="" style="endArrow=none;html=1;fillColor=#000000;exitX=0.5;exitY=0;exitDx=0;exitDy=0;" edge="1" parent="1" source="4OlCsBWtwcq7WQwYE5SA-12">
          <mxGeometry width="50" height="50" relative="1" as="geometry">
            <mxPoint x="-80" y="760" as="sourcePoint" />
            <mxPoint x="-30" y="710" as="targetPoint" />
          </mxGeometry>
        </mxCell>
        <mxCell id="4OlCsBWtwcq7WQwYE5SA-35" value="" style="endArrow=none;html=1;fillColor=#000000;exitX=0.75;exitY=0;exitDx=0;exitDy=0;" edge="1" parent="1" source="4OlCsBWtwcq7WQwYE5SA-11">
          <mxGeometry width="50" height="50" relative="1" as="geometry">
            <mxPoint x="-280" y="760" as="sourcePoint" />
            <mxPoint x="-230" y="710" as="targetPoint" />
          </mxGeometry>
        </mxCell>
        <mxCell id="4OlCsBWtwcq7WQwYE5SA-36" value="" style="rhombus;whiteSpace=wrap;html=1;" vertex="1" parent="1">
          <mxGeometry x="632.5" y="810" width="55" height="50" as="geometry" />
        </mxCell>
        <mxCell id="4OlCsBWtwcq7WQwYE5SA-37" value="" style="rounded=0;whiteSpace=wrap;html=1;" vertex="1" parent="1">
          <mxGeometry x="600" y="1030" width="120" height="60" as="geometry" />
        </mxCell>
        <mxCell id="4OlCsBWtwcq7WQwYE5SA-38" value="" style="endArrow=none;html=1;fillColor=#000000;entryX=0.5;entryY=1;entryDx=0;entryDy=0;exitX=0.5;exitY=0;exitDx=0;exitDy=0;" edge="1" parent="1" source="4OlCsBWtwcq7WQwYE5SA-36" target="4OlCsBWtwcq7WQwYE5SA-6">
          <mxGeometry width="50" height="50" relative="1" as="geometry">
            <mxPoint x="635" y="750" as="sourcePoint" />
            <mxPoint x="685" y="700" as="targetPoint" />
          </mxGeometry>
        </mxCell>
        <mxCell id="4OlCsBWtwcq7WQwYE5SA-39" value="" style="endArrow=none;html=1;fillColor=#000000;entryX=0.5;entryY=1;entryDx=0;entryDy=0;exitX=0.5;exitY=0;exitDx=0;exitDy=0;" edge="1" parent="1" source="4OlCsBWtwcq7WQwYE5SA-37" target="4OlCsBWtwcq7WQwYE5SA-36">
          <mxGeometry width="50" height="50" relative="1" as="geometry">
            <mxPoint x="637.5" y="950" as="sourcePoint" />
            <mxPoint x="687.5" y="900" as="targetPoint" />
          </mxGeometry>
        </mxCell>
        <mxCell id="4OlCsBWtwcq7WQwYE5SA-42" value="" style="rhombus;whiteSpace=wrap;html=1;" vertex="1" parent="1">
          <mxGeometry x="902.5" y="1035" width="55" height="50" as="geometry" />
        </mxCell>
        <mxCell id="4OlCsBWtwcq7WQwYE5SA-43" value="" style="rounded=0;whiteSpace=wrap;html=1;" vertex="1" parent="1">
          <mxGeometry x="870" y="590" width="120" height="60" as="geometry" />
        </mxCell>
        <mxCell id="4OlCsBWtwcq7WQwYE5SA-46" value="" style="rhombus;whiteSpace=wrap;html=1;" vertex="1" parent="1">
          <mxGeometry x="900" y="380" width="55" height="50" as="geometry" />
        </mxCell>
        <mxCell id="4OlCsBWtwcq7WQwYE5SA-49" value="" style="endArrow=none;html=1;fillColor=#000000;entryX=0;entryY=0.5;entryDx=0;entryDy=0;exitX=1;exitY=0.5;exitDx=0;exitDy=0;" edge="1" parent="1" source="4OlCsBWtwcq7WQwYE5SA-37" target="4OlCsBWtwcq7WQwYE5SA-42">
          <mxGeometry width="50" height="50" relative="1" as="geometry">
            <mxPoint x="720" y="1060" as="sourcePoint" />
            <mxPoint x="770" y="1010" as="targetPoint" />
          </mxGeometry>
        </mxCell>
        <mxCell id="4OlCsBWtwcq7WQwYE5SA-53" value="" style="endArrow=none;html=1;fillColor=#000000;entryX=0.5;entryY=1;entryDx=0;entryDy=0;exitX=0.5;exitY=0;exitDx=0;exitDy=0;" edge="1" parent="1" source="4OlCsBWtwcq7WQwYE5SA-42" target="4OlCsBWtwcq7WQwYE5SA-43">
          <mxGeometry width="50" height="50" relative="1" as="geometry">
            <mxPoint x="905" y="760" as="sourcePoint" />
            <mxPoint x="940" y="680" as="targetPoint" />
          </mxGeometry>
        </mxCell>
        <mxCell id="4OlCsBWtwcq7WQwYE5SA-54" value="" style="endArrow=none;html=1;fillColor=#000000;entryX=0.5;entryY=1;entryDx=0;entryDy=0;exitX=0.5;exitY=0;exitDx=0;exitDy=0;" edge="1" parent="1" source="4OlCsBWtwcq7WQwYE5SA-43" target="4OlCsBWtwcq7WQwYE5SA-46">
          <mxGeometry width="50" height="50" relative="1" as="geometry">
            <mxPoint x="905" y="510" as="sourcePoint" />
            <mxPoint x="955" y="460" as="targetPoint" />
          </mxGeometry>
        </mxCell>
        <mxCell id="4OlCsBWtwcq7WQwYE5SA-55" value="" style="endArrow=none;html=1;fillColor=#000000;entryX=1;entryY=0.5;entryDx=0;entryDy=0;exitX=0.5;exitY=0;exitDx=0;exitDy=0;" edge="1" parent="1" source="4OlCsBWtwcq7WQwYE5SA-46" target="4OlCsBWtwcq7WQwYE5SA-3">
          <mxGeometry width="50" height="50" relative="1" as="geometry">
            <mxPoint x="880" y="280" as="sourcePoint" />
            <mxPoint x="930" y="230" as="targetPoint" />
            <Array as="points">
              <mxPoint x="928" y="170" />
            </Array>
          </mxGeometry>
        </mxCell>
        <mxCell id="4OlCsBWtwcq7WQwYE5SA-56" value="" style="rounded=0;whiteSpace=wrap;html=1;" vertex="1" parent="1">
          <mxGeometry x="90" y="1030" width="120" height="60" as="geometry" />
        </mxCell>
        <mxCell id="4OlCsBWtwcq7WQwYE5SA-60" value="" style="rhombus;whiteSpace=wrap;html=1;" vertex="1" parent="1">
          <mxGeometry x="380" y="1035" width="55" height="50" as="geometry" />
        </mxCell>
        <mxCell id="4OlCsBWtwcq7WQwYE5SA-64" value="" style="rhombus;whiteSpace=wrap;html=1;" vertex="1" parent="1">
          <mxGeometry x="-135" y="1035" width="55" height="50" as="geometry" />
        </mxCell>
        <mxCell id="4OlCsBWtwcq7WQwYE5SA-65" value="" style="endArrow=none;html=1;fillColor=#000000;entryX=0;entryY=0.5;entryDx=0;entryDy=0;exitX=0;exitY=0.5;exitDx=0;exitDy=0;" edge="1" parent="1" source="4OlCsBWtwcq7WQwYE5SA-64" target="4OlCsBWtwcq7WQwYE5SA-10">
          <mxGeometry width="50" height="50" relative="1" as="geometry">
            <mxPoint x="60" y="990" as="sourcePoint" />
            <mxPoint x="110" y="940" as="targetPoint" />
            <Array as="points">
              <mxPoint x="-370" y="1060" />
              <mxPoint x="-370" y="620" />
            </Array>
          </mxGeometry>
        </mxCell>
        <mxCell id="4OlCsBWtwcq7WQwYE5SA-68" value="" style="endArrow=none;html=1;fillColor=#000000;entryX=0;entryY=0.5;entryDx=0;entryDy=0;exitX=1;exitY=0.5;exitDx=0;exitDy=0;" edge="1" parent="1" source="4OlCsBWtwcq7WQwYE5SA-64" target="4OlCsBWtwcq7WQwYE5SA-56">
          <mxGeometry width="50" height="50" relative="1" as="geometry">
            <mxPoint x="-30" y="1085" as="sourcePoint" />
            <mxPoint x="20" y="1035" as="targetPoint" />
          </mxGeometry>
        </mxCell>
        <mxCell id="4OlCsBWtwcq7WQwYE5SA-69" value="" style="endArrow=none;html=1;fillColor=#000000;entryX=0;entryY=0.5;entryDx=0;entryDy=0;exitX=1;exitY=0.5;exitDx=0;exitDy=0;" edge="1" parent="1" source="4OlCsBWtwcq7WQwYE5SA-56" target="4OlCsBWtwcq7WQwYE5SA-60">
          <mxGeometry width="50" height="50" relative="1" as="geometry">
            <mxPoint x="270" y="1085" as="sourcePoint" />
            <mxPoint x="320" y="1035" as="targetPoint" />
          </mxGeometry>
        </mxCell>
        <mxCell id="4OlCsBWtwcq7WQwYE5SA-70" value="" style="endArrow=none;html=1;fillColor=#000000;entryX=0;entryY=0.5;entryDx=0;entryDy=0;exitX=1;exitY=0.5;exitDx=0;exitDy=0;" edge="1" parent="1" source="4OlCsBWtwcq7WQwYE5SA-60" target="4OlCsBWtwcq7WQwYE5SA-37">
          <mxGeometry width="50" height="50" relative="1" as="geometry">
            <mxPoint x="490" y="1085" as="sourcePoint" />
            <mxPoint x="540" y="1035" as="targetPoint" />
          </mxGeometry>
        </mxCell>
        <mxCell id="4OlCsBWtwcq7WQwYE5SA-73" value="" style="rhombus;whiteSpace=wrap;html=1;" vertex="1" parent="1">
          <mxGeometry x="122.5" y="1230" width="55" height="50" as="geometry" />
        </mxCell>
        <mxCell id="4OlCsBWtwcq7WQwYE5SA-74" value="" style="rounded=0;whiteSpace=wrap;html=1;" vertex="1" parent="1">
          <mxGeometry x="89.41" y="1440" width="120" height="60" as="geometry" />
        </mxCell>
        <mxCell id="4OlCsBWtwcq7WQwYE5SA-75" value="" style="shape=flexArrow;endArrow=classic;html=1;endWidth=28;endSize=10.3;width=22;fillColor=#000000;" edge="1" parent="1">
          <mxGeometry width="50" height="50" relative="1" as="geometry">
            <mxPoint x="149.41" y="1560" as="sourcePoint" />
            <mxPoint x="148.91" y="1500" as="targetPoint" />
          </mxGeometry>
        </mxCell>
        <mxCell id="4OlCsBWtwcq7WQwYE5SA-76" value="" style="endArrow=none;html=1;fillColor=#000000;" edge="1" parent="1">
          <mxGeometry width="50" height="50" relative="1" as="geometry">
            <mxPoint x="49.41" y="1560" as="sourcePoint" />
            <mxPoint x="249.41" y="1560" as="targetPoint" />
          </mxGeometry>
        </mxCell>
        <mxCell id="4OlCsBWtwcq7WQwYE5SA-77" value="" style="endArrow=none;html=1;fillColor=#000000;" edge="1" parent="1">
          <mxGeometry width="50" height="50" relative="1" as="geometry">
            <mxPoint x="49.41" y="1621" as="sourcePoint" />
            <mxPoint x="49.41" y="1560" as="targetPoint" />
          </mxGeometry>
        </mxCell>
        <mxCell id="4OlCsBWtwcq7WQwYE5SA-78" value="" style="endArrow=none;html=1;fillColor=#000000;" edge="1" parent="1">
          <mxGeometry width="50" height="50" relative="1" as="geometry">
            <mxPoint x="249.41" y="1620" as="sourcePoint" />
            <mxPoint x="249.41" y="1560" as="targetPoint" />
          </mxGeometry>
        </mxCell>
        <mxCell id="4OlCsBWtwcq7WQwYE5SA-79" value="" style="rounded=0;whiteSpace=wrap;html=1;" vertex="1" parent="1">
          <mxGeometry y="1620" width="120" height="60" as="geometry" />
        </mxCell>
        <mxCell id="4OlCsBWtwcq7WQwYE5SA-80" value="" style="rounded=0;whiteSpace=wrap;html=1;" vertex="1" parent="1">
          <mxGeometry x="210" y="1620" width="120" height="60" as="geometry" />
        </mxCell>
        <mxCell id="4OlCsBWtwcq7WQwYE5SA-82" value="" style="endArrow=none;html=1;fillColor=#000000;entryX=0.5;entryY=1;entryDx=0;entryDy=0;exitX=0.5;exitY=0;exitDx=0;exitDy=0;" edge="1" parent="1" source="4OlCsBWtwcq7WQwYE5SA-73" target="4OlCsBWtwcq7WQwYE5SA-56">
          <mxGeometry width="50" height="50" relative="1" as="geometry">
            <mxPoint x="125" y="1190" as="sourcePoint" />
            <mxPoint x="175" y="1140" as="targetPoint" />
          </mxGeometry>
        </mxCell>
        <mxCell id="4OlCsBWtwcq7WQwYE5SA-83" value="" style="endArrow=none;html=1;fillColor=#000000;entryX=0.5;entryY=1;entryDx=0;entryDy=0;exitX=0.5;exitY=0;exitDx=0;exitDy=0;" edge="1" parent="1" source="4OlCsBWtwcq7WQwYE5SA-74" target="4OlCsBWtwcq7WQwYE5SA-73">
          <mxGeometry width="50" height="50" relative="1" as="geometry">
            <mxPoint x="125" y="1370" as="sourcePoint" />
            <mxPoint x="175" y="1320" as="targetPoint" />
          </mxGeometry>
        </mxCell>
        <mxCell id="4OlCsBWtwcq7WQwYE5SA-84" value="" style="rounded=0;whiteSpace=wrap;html=1;" vertex="1" parent="1">
          <mxGeometry x="-410" y="1440" width="120" height="60" as="geometry" />
        </mxCell>
        <mxCell id="4OlCsBWtwcq7WQwYE5SA-85" value="" style="rhombus;whiteSpace=wrap;html=1;" vertex="1" parent="1">
          <mxGeometry x="-135" y="1445" width="55" height="50" as="geometry" />
        </mxCell>
        <mxCell id="4OlCsBWtwcq7WQwYE5SA-87" value="" style="rhombus;whiteSpace=wrap;html=1;" vertex="1" parent="1">
          <mxGeometry x="-135" y="1230" width="55" height="50" as="geometry" />
        </mxCell>
        <mxCell id="4OlCsBWtwcq7WQwYE5SA-88" value="" style="endArrow=none;html=1;fillColor=#000000;entryX=0;entryY=0.5;entryDx=0;entryDy=0;exitX=0.5;exitY=0;exitDx=0;exitDy=0;" edge="1" parent="1" source="4OlCsBWtwcq7WQwYE5SA-84" target="4OlCsBWtwcq7WQwYE5SA-87">
          <mxGeometry width="50" height="50" relative="1" as="geometry">
            <mxPoint x="-340" y="1390" as="sourcePoint" />
            <mxPoint x="-290" y="1340" as="targetPoint" />
            <Array as="points">
              <mxPoint x="-350" y="1255" />
            </Array>
          </mxGeometry>
        </mxCell>
        <mxCell id="4OlCsBWtwcq7WQwYE5SA-90" value="" style="endArrow=none;html=1;fillColor=#000000;entryX=0.5;entryY=1;entryDx=0;entryDy=0;exitX=0.25;exitY=0;exitDx=0;exitDy=0;" edge="1" parent="1" source="4OlCsBWtwcq7WQwYE5SA-74" target="4OlCsBWtwcq7WQwYE5SA-87">
          <mxGeometry width="50" height="50" relative="1" as="geometry">
            <mxPoint x="-55" y="1360" as="sourcePoint" />
            <mxPoint x="-5" y="1310" as="targetPoint" />
            <Array as="points">
              <mxPoint x="119" y="1310" />
              <mxPoint x="-107" y="1310" />
            </Array>
          </mxGeometry>
        </mxCell>
        <mxCell id="4OlCsBWtwcq7WQwYE5SA-91" value="" style="endArrow=none;html=1;fillColor=#000000;entryX=0.25;entryY=1;entryDx=0;entryDy=0;exitX=0.5;exitY=0;exitDx=0;exitDy=0;" edge="1" parent="1" source="4OlCsBWtwcq7WQwYE5SA-87" target="4OlCsBWtwcq7WQwYE5SA-56">
          <mxGeometry width="50" height="50" relative="1" as="geometry">
            <mxPoint x="20" y="1210" as="sourcePoint" />
            <mxPoint x="70" y="1160" as="targetPoint" />
            <Array as="points">
              <mxPoint x="-107" y="1120" />
              <mxPoint x="120" y="1120" />
            </Array>
          </mxGeometry>
        </mxCell>
        <mxCell id="4OlCsBWtwcq7WQwYE5SA-92" value="" style="endArrow=none;html=1;fillColor=#000000;entryX=0;entryY=0.5;entryDx=0;entryDy=0;exitX=1;exitY=0.5;exitDx=0;exitDy=0;" edge="1" parent="1" source="4OlCsBWtwcq7WQwYE5SA-84" target="4OlCsBWtwcq7WQwYE5SA-85">
          <mxGeometry width="50" height="50" relative="1" as="geometry">
            <mxPoint x="-240" y="1500" as="sourcePoint" />
            <mxPoint x="-190" y="1450" as="targetPoint" />
          </mxGeometry>
        </mxCell>
        <mxCell id="4OlCsBWtwcq7WQwYE5SA-93" value="" style="endArrow=none;html=1;fillColor=#000000;entryX=0;entryY=0.5;entryDx=0;entryDy=0;exitX=1;exitY=0.5;exitDx=0;exitDy=0;" edge="1" parent="1" source="4OlCsBWtwcq7WQwYE5SA-85" target="4OlCsBWtwcq7WQwYE5SA-74">
          <mxGeometry width="50" height="50" relative="1" as="geometry">
            <mxPoint x="-30" y="1495" as="sourcePoint" />
            <mxPoint x="20" y="1445" as="targetPoint" />
          </mxGeometry>
        </mxCell>
      </root>
    </mxGraphModel>
  </diagram>
</mxfile>
